<svg xmlns="http://www.w3.org/2000/svg" width="72" height="72"><g fill="none" fill-rule="evenodd"><rect fill="#21759B" width="72" height="72" rx="4"/><g fill="#FFF"><path d="M15.533 36.026c0 8.111 4.714 15.122 11.55 18.443l-9.776-26.784a20.416 20.416 0 00-1.774 8.34m34.327-1.033c0-2.533-.91-4.287-1.689-5.652-1.038-1.689-2.013-3.117-2.013-4.806 0-1.884 1.429-3.637 3.442-3.637.09 0 .177.01.265.016a20.417 20.417 0 00-13.839-5.38c-7.16 0-13.458 3.673-17.122 9.236.48.016.934.025 1.318.025 2.144 0 5.462-.26 5.462-.26 1.105-.065 1.235 1.558.132 1.689 0 0-1.111.13-2.346.194l7.462 22.199 4.486-13.45-3.193-8.749c-1.104-.065-2.15-.194-2.15-.194-1.104-.066-.974-1.754.13-1.69 0 0 3.385.261 5.398.261 2.143 0 5.462-.26 5.462-.26 1.105-.065 1.235 1.558.131 1.689 0 0-1.112.13-2.345.194l7.406 22.03 2.044-6.83c.885-2.836 1.56-4.871 1.56-6.625"/><path d="M36.386 37.818l-6.15 17.868a20.488 20.488 0 0012.596-.327 1.914 1.914 0 01-.147-.282l-6.299-17.259zM54.01 26.194c.087.653.137 1.353.137 2.108 0 2.078-.39 4.416-1.558 7.34l-6.26 18.097c6.093-3.552 10.19-10.153 10.19-17.713 0-3.563-.91-6.913-2.51-9.832"/><path d="M36.026 58.82c-12.568 0-22.793-10.226-22.793-22.794s10.225-22.793 22.793-22.793c12.569 0 22.794 10.225 22.794 22.793S48.595 58.82 36.026 58.82m0-46.684c-13.172.001-23.889 10.717-23.889 23.89s10.717 23.89 23.89 23.89c13.172 0 23.889-10.717 23.889-23.89s-10.717-23.889-23.89-23.889"/></g></g></svg>